<svg xmlns="http://www.w3.org/2000/svg" width="29.556" height="20.874" viewBox="0 0 29.556 20.874"><g transform="translate(0.375 0.375)"><path d="M760.086,1316.168l-3.2.458a2.091,2.091,0,0,0-1.754,2.059v.8a.423.423,0,0,0,.419.42h4.576" transform="translate(-735.454 -1304.884)" fill="none" stroke="#000" stroke-linecap="round" stroke-miterlimit="10" stroke-width="0.75"/><path d="M699.029,1316.168l3.2.458a2.091,2.091,0,0,1,1.754,2.059v.8a.423.423,0,0,1-.419.42h-4.576" transform="translate(-694.8 -1304.884)" fill="none" stroke="#000" stroke-linecap="round" stroke-miterlimit="10" stroke-width="0.75"/><path d="M711.478,1280.816h-2.506l-2.252-4.359c0-.037-.036-.037-.036-.073a2.924,2.924,0,0,0-2.325-1.162H692.044a2.924,2.924,0,0,0-2.325,1.162c0,.036-.036.036-.036.073l-2.252,4.359h-2.506a1.132,1.132,0,0,0-1.126,1.126v1.417a.935.935,0,0,0,.363.8l1.09,1.189v7.384a2.614,2.614,0,0,0,5.224.145h15.487a2.614,2.614,0,0,0,5.224-.145v-.451c0-.007,0-.014,0-.021v-6.9l1.09-1.2a1.126,1.126,0,0,0,.327-.8v-1.417A1.132,1.132,0,0,0,711.478,1280.816Z" transform="translate(-683.798 -1275.222)" fill="none" stroke="#000" stroke-linecap="round" stroke-miterlimit="10" stroke-width="0.75"/><line x1="4.499" transform="translate(12.171 14.566)" fill="none" stroke="#000" stroke-linecap="round" stroke-miterlimit="10" stroke-width="0.75"/><line x1="16.224" transform="translate(6.292 6.03)" fill="none" stroke="#000" stroke-linecap="round" stroke-miterlimit="10" stroke-width="0.75"/><path d="M713.024,1302.085l1.834,1.5a2.022,2.022,0,0,0,1.426.518h7.131a2.05,2.05,0,0,0,1.2-.389c.421-.389,1.713-1.633,1.713-1.633" transform="translate(-705.201 -1294.641)" fill="none" stroke="#000" stroke-linecap="round" stroke-miterlimit="10" stroke-width="0.75"/></g></svg>