<svg xmlns="http://www.w3.org/2000/svg" width="461.074" height="33.789" viewBox="0 0 461.074 33.789">
  <g id="Group_1860" data-name="Group 1860" transform="translate(-40 -152.297)">
    <g id="Group_1403" data-name="Group 1403" transform="translate(0 133.297)">
      <g id="Group_4" data-name="Group 4" transform="translate(40 19)">
        <g id="Group_3" data-name="Group 3" transform="translate(0)">
          <g id="Group_1" data-name="Group 1" transform="translate(0)">
            <path id="Path_2" data-name="Path 2" d="M946.4,17.134v-.067a3.875,3.875,0,0,0,2.671-3.763,3.906,3.906,0,0,0-1.242-3.022,5.625,5.625,0,0,0-3.637-1.209h-.847a32.577,32.577,0,0,0-4.1.27v14.94h2.67V18.076h1.363a2.044,2.044,0,0,1,.912.132c.906.27,1.363.94,1.687,2.488a21.287,21.287,0,0,0,.977,3.587h2.732c-.261-.607-.65-2.309-1.11-4.194C948.092,18.615,947.508,17.537,946.4,17.134Zm-2.207-1.141c-.261,0-.457.067-.72.067h-1.555v-4.77a7.7,7.7,0,0,1,1.687-.136h.588a2.266,2.266,0,0,1,2.207,2.423A2.387,2.387,0,0,1,944.193,15.994Z" transform="translate(-808.246 -9.074)" fill="#fff"/>
            <path id="Path_3" data-name="Path 3" d="M1038.049,15.595c-1.949-.733-2.8-1.265-2.8-2.4,0-.933.719-1.868,2.407-1.868a6.439,6.439,0,0,1,2.927.733l.648-2.2a7.752,7.752,0,0,0-3.509-.731c-3.19,0-5.207,1.867-5.207,4.268,0,2.2,1.566,3.533,3.97,4.4,1.885.666,2.6,1.332,2.6,2.467,0,1.2-.974,2.066-2.665,2.066a6.919,6.919,0,0,1-3.514-1l-.582,2.263a7.884,7.884,0,0,0,3.969,1c3.767,0,5.523-2.132,5.523-4.532C1041.821,17.927,1040.587,16.6,1038.049,15.595Z" transform="translate(-889.329 -9.121)" fill="#fff"/>
            <path id="Path_4" data-name="Path 4" d="M505.878,10.649l-2.064,5.984c-.533,1.785-1.07,3.648-1.452,5.282h-.074c-.383-1.71-.842-3.5-1.375-5.206L499,10.649h-3.587l-.918,15h2.522l.305-5.981c.074-2.1.151-4.508.226-6.452h.076a55.042,55.042,0,0,0,1.531,5.828l1.91,6.452h2.063l2.215-6.53c.611-1.864,1.223-3.884,1.756-5.749,0,2.019.152,4.351.23,6.3l.23,6.137h2.673l-.838-15Z" transform="translate(-422.495 -10.435)" fill="#fff"/>
            <path id="Path_5" data-name="Path 5" d="M634.864,9.238h-.118c-4.059.062-6.864,3.278-6.864,7.829,0,4.366,2.627,7.582,6.744,7.582h.12c4-.058,6.922-2.913,6.922-7.826C641.668,12.516,639.161,9.238,634.864,9.238Zm-.118,13.229c-2.566,0-4.059-2.489-4.059-5.465s1.372-5.581,4.059-5.581,4.056,2.672,4.056,5.461C638.8,20.04,637.372,22.467,634.746,22.467Z" transform="translate(-538.882 -9.216)" fill="#fff"/>
            <path id="Path_6" data-name="Path 6" d="M827.536,9.238h-.121c-4.062.062-6.867,3.278-6.867,7.829,0,4.366,2.626,7.582,6.747,7.582h.12c3.995-.058,6.916-2.913,6.916-7.826C834.331,12.516,831.826,9.238,827.536,9.238Zm-.121,13.229c-2.571,0-4.062-2.489-4.062-5.465s1.37-5.581,4.062-5.581,4.051,2.672,4.051,5.461C831.467,20.04,830.038,22.467,827.415,22.467Z" transform="translate(-705.548 -9.216)" fill="#fff"/>
            <path id="Path_7" data-name="Path 7" d="M734.506,12.953h4.238V25.644h2.685V12.953H745.6v-2.3h-11.1Z" transform="translate(-631.506 -10.435)" fill="#fff"/>
            <path id="Path_8" data-name="Path 8" d="M23.083,10.649H8.843v4.406h4.222v10.59H19V15.054h4.085Z" transform="translate(-8.843 -10.435)" fill="#fff"/>
            <path id="Path_9" data-name="Path 9" d="M108.222,10.649l-5.591,15h5.7l3-8.936,3.035,8.936h5.768l-5.723-15Z" transform="translate(-88.631 -10.435)" fill="#fff"/>
            <path id="Path_10" data-name="Path 10" d="M235.552,10.649h-14.24v4.406h4.221v10.59h5.934V15.054h4.085Z" transform="translate(-190.311 -10.435)" fill="#fff"/>
            <path id="Path_11" data-name="Path 11" d="M320.68,10.649l-5.59,15h5.7l3-8.936,3.036,8.936h5.767l-5.722-15Z" transform="translate(-270.091 -10.435)" fill="#fff"/>
          </g>
          <g id="Group_2" data-name="Group 2" transform="translate(0.048 19.143)">
            <path id="Path_12" data-name="Path 12" d="M13.063,181.68a3.545,3.545,0,0,1-3.871-3.732v-3.9a3.539,3.539,0,0,1,3.825-3.732,5.287,5.287,0,0,1,3.271,1.126.1.1,0,0,1,.031.169l-.309.447a.114.114,0,0,1-.184.015A4.723,4.723,0,0,0,13,171.115a2.723,2.723,0,0,0-2.961,2.931v3.9a2.731,2.731,0,0,0,2.993,2.93,4.72,4.72,0,0,0,3.039-1.1.109.109,0,0,1,.185.031l.309.447a.119.119,0,0,1-.031.185A5.319,5.319,0,0,1,13.063,181.68Z" transform="translate(-9.24 -170.313)" fill="#fff"/>
            <path id="Path_13" data-name="Path 13" d="M76.426,201.277c-2.083,0-3.286-1.249-3.286-2.961v-2.345a2.957,2.957,0,0,1,3.286-2.976c2.1,0,3.284,1.28,3.284,2.976v2.345C79.71,200.029,78.522,201.277,76.426,201.277Zm0-.74a2.165,2.165,0,0,0,2.468-2.221v-2.345a2.473,2.473,0,0,0-4.921,0v2.345A2.167,2.167,0,0,0,76.426,200.537Z" transform="translate(-64.187 -189.91)" fill="#fff"/>
            <path id="Path_14" data-name="Path 14" d="M135.97,201.108a.125.125,0,0,1-.138-.123V193.75a.161.161,0,0,1,.109-.154,7.219,7.219,0,0,1,2.868-.6c2.052,0,3.348,1.018,3.348,3.208v4.781a.113.113,0,0,1-.124.123h-.556a.125.125,0,0,1-.138-.123v-4.751a2.213,2.213,0,0,0-2.53-2.483,6.669,6.669,0,0,0-2.159.37v6.864a.113.113,0,0,1-.123.123Z" transform="translate(-118.88 -189.91)" fill="#fff"/>
            <path id="Path_15" data-name="Path 15" d="M198.443,201.108a.126.126,0,0,1-.138-.123V193.75a.16.16,0,0,1,.108-.154,7.22,7.22,0,0,1,2.868-.6c2.052,0,3.348,1.018,3.348,3.208v4.781a.113.113,0,0,1-.123.123h-.556a.125.125,0,0,1-.138-.123v-4.751a2.213,2.213,0,0,0-2.53-2.483,6.663,6.663,0,0,0-2.159.37v6.864a.113.113,0,0,1-.124.123Z" transform="translate(-173.353 -189.91)" fill="#fff"/>
            <path id="Path_16" data-name="Path 16" d="M265.256,197.437a.126.126,0,0,1-.138.123H259.8v.864a2.126,2.126,0,0,0,2.33,2.113,3.7,3.7,0,0,0,2.514-.987c.077-.046.138-.046.186.031l.277.355c.062.062.062.123-.015.185a4.412,4.412,0,0,1-2.976,1.157,2.908,2.908,0,0,1-3.147-2.853v-2.437a3.151,3.151,0,0,1,6.293,0Zm-3.131-3.687a2.087,2.087,0,0,0-2.33,2.237v.879h4.658v-.879A2.114,2.114,0,0,0,262.125,193.75Z" transform="translate(-226.01 -189.91)" fill="#fff"/>
            <path id="Path_17" data-name="Path 17" d="M320.171,201.277a2.889,2.889,0,0,1-3.162-2.915V195.91a2.889,2.889,0,0,1,3.162-2.915,4.223,4.223,0,0,1,2.483.8c.077.062.092.124.046.186l-.262.4a.14.14,0,0,1-.186.031,3.523,3.523,0,0,0-2.081-.663,2.119,2.119,0,0,0-2.346,2.159v2.452a2.13,2.13,0,0,0,2.346,2.175,3.791,3.791,0,0,0,2.282-.786.115.115,0,0,1,.186.016l.262.386c.046.077.046.138-.015.184A4.243,4.243,0,0,1,320.171,201.277Z" transform="translate(-276.056 -189.91)" fill="#fff"/>
            <path id="Path_18" data-name="Path 18" d="M374.066,189.041c.2,0,.555-.016.847-.031.077-.016.123.031.123.123v.494c0,.077-.03.123-.123.139-.277.031-.663.046-.879.046a2.346,2.346,0,0,1-2.5-2.622v-7.342a.113.113,0,0,1,.124-.123h.494a.136.136,0,0,1,.14.123l.046,1.882H374.7a.126.126,0,0,1,.123.139v.478a.113.113,0,0,1-.123.123h-2.345v4.689C372.354,188.331,372.939,189.041,374.066,189.041Z" transform="translate(-322.584 -178.445)" fill="#fff"/>
            <path id="Path_19" data-name="Path 19" d="M406.678,175.262a.548.548,0,1,1,.54-.54A.531.531,0,0,1,406.678,175.262Zm-.293,9.579a.113.113,0,0,1-.123-.123v-7.682c0-.092.046-.138.123-.138h.571c.077,0,.123.046.123.138v7.682a.113.113,0,0,1-.123.123Z" transform="translate(-352.17 -173.643)" fill="#fff"/>
            <path id="Path_20" data-name="Path 20" d="M429.84,201.108a.126.126,0,0,1-.138-.123V193.75a.16.16,0,0,1,.108-.154,7.22,7.22,0,0,1,2.868-.6c2.052,0,3.348,1.018,3.348,3.208v4.781a.113.113,0,0,1-.123.123h-.556a.125.125,0,0,1-.138-.123v-4.751a2.213,2.213,0,0,0-2.53-2.483,6.664,6.664,0,0,0-2.159.37v6.864a.113.113,0,0,1-.123.123Z" transform="translate(-372.75 -189.91)" fill="#fff"/>
            <path id="Path_21" data-name="Path 21" d="M493.324,204.193a4.179,4.179,0,0,1-2.93-1.157c-.062-.046-.062-.109-.016-.185l.278-.4a.1.1,0,0,1,.169-.016,3.68,3.68,0,0,0,2.5,1.018,2.049,2.049,0,0,0,2.3-2.36v-.771a5.377,5.377,0,0,1-2.206.509c-1.943,0-3.286-1.018-3.286-3.1v-1.62c0-2.206,1.4-3.115,3.348-3.115a7.652,7.652,0,0,1,2.853.57.162.162,0,0,1,.108.155v7.434A2.77,2.77,0,0,1,493.324,204.193Zm.138-4.1a4.566,4.566,0,0,0,2.16-.54v-5.46a7.442,7.442,0,0,0-2.16-.34c-1.558,0-2.5.694-2.5,2.36v1.62C490.964,199.411,491.967,200.089,493.463,200.089Z" transform="translate(-425.179 -189.91)" fill="#fff"/>
            <path id="Path_22" data-name="Path 22" d="M569.633,182.588c-.077,0-.123-.062-.092-.155l3.949-10.766a.165.165,0,0,1,.14-.108h.77a.165.165,0,0,1,.14.108l3.964,10.766c.015.093-.015.155-.109.155h-.632a.168.168,0,0,1-.154-.108l-1.125-3.116h-4.936l-1.125,3.116a.165.165,0,0,1-.14.108Zm2.175-4.01h4.411l-2.174-6.031H574Z" transform="translate(-489.578 -171.39)" fill="#fff"/>
            <path id="Path_23" data-name="Path 23" d="M643.937,201.277a4.782,4.782,0,0,1-2.976-1,.116.116,0,0,1-.046-.17l.262-.432a.11.11,0,0,1,.186-.031,4.286,4.286,0,0,0,2.59.894c1.265,0,2.16-.54,2.16-1.542,0-1.1-1.142-1.326-2.16-1.542-1.2-.231-2.914-.694-2.914-2.345,0-1.388,1.311-2.113,2.853-2.113a5.3,5.3,0,0,1,2.7.74.119.119,0,0,1,.046.185l-.247.417a.127.127,0,0,1-.186.046,4.748,4.748,0,0,0-2.344-.633c-1.2,0-2.02.509-2.02,1.357,0,1.064,1.111,1.357,2.267,1.6,1.326.278,2.838.617,2.838,2.252C646.944,200.383,645.788,201.277,643.937,201.277Z" transform="translate(-550.943 -189.91)" fill="#fff"/>
            <path id="Path_24" data-name="Path 24" d="M700.721,192.995a2.99,2.99,0,0,1,3.332,3.316v1.666a3.011,3.011,0,0,1-3.3,3.3,4.291,4.291,0,0,1-2.2-.617v3.254a.113.113,0,0,1-.123.123h-.556a.125.125,0,0,1-.138-.123V193.7a.156.156,0,0,1,.092-.155A8.156,8.156,0,0,1,700.721,192.995Zm2.5,4.982v-1.666c0-1.835-.925-2.576-2.514-2.576a6.256,6.256,0,0,0-2.159.37v5.753a3.852,3.852,0,0,0,2.159.679A2.232,2.232,0,0,0,703.218,197.977Z" transform="translate(-599.776 -189.91)" fill="#fff"/>
            <path id="Path_25" data-name="Path 25" d="M758.255,175.262a.548.548,0,1,1,.54-.54A.531.531,0,0,1,758.255,175.262Zm-.293,9.579a.113.113,0,0,1-.123-.123v-7.682c0-.092.046-.138.123-.138h.571c.077,0,.123.046.123.138v7.682a.113.113,0,0,1-.123.123Z" transform="translate(-651.747 -173.643)" fill="#fff"/>
            <path id="Path_26" data-name="Path 26" d="M781.417,201.108a.126.126,0,0,1-.138-.123V193.7a.161.161,0,0,1,.109-.155,6.365,6.365,0,0,1,2.606-.555,11,11,0,0,1,1.573.138.125.125,0,0,1,.123.139v.478a.108.108,0,0,1-.138.108,9.221,9.221,0,0,0-1.466-.123,5.367,5.367,0,0,0-1.989.37v6.879a.113.113,0,0,1-.123.123Z" transform="translate(-672.326 -189.91)" fill="#fff"/>
            <path id="Path_27" data-name="Path 27" d="M821.626,192.995a2.65,2.65,0,0,1,2.946,2.915V200.6a.162.162,0,0,1-.108.155,8.28,8.28,0,0,1-2.869.524c-1.774,0-3.238-.833-3.238-2.5,0-1.588,1.249-2.437,3.238-2.437a12.116,12.116,0,0,1,2.16.247v-.663a1.9,1.9,0,0,0-2.16-2.175,4.637,4.637,0,0,0-2.359.633.112.112,0,0,1-.169-.03l-.263-.4c-.046-.062-.046-.123,0-.155A4.942,4.942,0,0,1,821.626,192.995Zm-.031,7.542a6.73,6.73,0,0,0,2.16-.37V197.3a10.9,10.9,0,0,0-2.16-.231c-1.6,0-2.406.617-2.406,1.712C819.19,199.89,820.192,200.537,821.6,200.537Z" transform="translate(-703.405 -189.91)" fill="#fff"/>
            <path id="Path_28" data-name="Path 28" d="M882.1,189.041c.2,0,.555-.016.848-.031.077-.016.123.031.123.123v.494a.124.124,0,0,1-.123.139c-.277.031-.663.046-.879.046a2.346,2.346,0,0,1-2.5-2.622v-7.342a.113.113,0,0,1,.123-.123h.494a.136.136,0,0,1,.14.123l.046,1.882h2.359a.126.126,0,0,1,.123.139v.478a.113.113,0,0,1-.123.123h-2.344v4.689C880.392,188.331,880.977,189.041,882.1,189.041Z" transform="translate(-756.622 -178.445)" fill="#fff"/>
            <path id="Path_29" data-name="Path 29" d="M914.716,175.262a.548.548,0,1,1,.54-.54A.531.531,0,0,1,914.716,175.262Zm-.293,9.579a.113.113,0,0,1-.123-.123v-7.682c0-.092.046-.138.123-.138h.571c.076,0,.123.046.123.138v7.682a.114.114,0,0,1-.123.123Z" transform="translate(-786.208 -173.643)" fill="#fff"/>
            <path id="Path_30" data-name="Path 30" d="M939.1,201.277c-2.081,0-3.284-1.249-3.284-2.961v-2.345a2.957,2.957,0,0,1,3.284-2.976c2.1,0,3.286,1.28,3.286,2.976v2.345C942.385,200.029,941.2,201.277,939.1,201.277Zm0-.74a2.165,2.165,0,0,0,2.468-2.221v-2.345a2.473,2.473,0,0,0-4.92,0v2.345A2.167,2.167,0,0,0,939.1,200.537Z" transform="translate(-804.863 -189.91)" fill="#fff"/>
            <path id="Path_31" data-name="Path 31" d="M998.645,201.108a.126.126,0,0,1-.138-.123V193.75a.16.16,0,0,1,.109-.154,7.219,7.219,0,0,1,2.868-.6c2.052,0,3.348,1.018,3.348,3.208v4.781a.114.114,0,0,1-.124.123h-.556a.125.125,0,0,1-.138-.123v-4.751a2.213,2.213,0,0,0-2.53-2.483,6.663,6.663,0,0,0-2.159.37v6.864a.113.113,0,0,1-.123.123Z" transform="translate(-859.555 -189.91)" fill="#fff"/>
            <path id="Path_32" data-name="Path 32" d="M1060.14,201.277a4.783,4.783,0,0,1-2.976-1,.116.116,0,0,1-.046-.17l.262-.432a.11.11,0,0,1,.186-.031,4.286,4.286,0,0,0,2.59.894c1.265,0,2.16-.54,2.16-1.542,0-1.1-1.142-1.326-2.16-1.542-1.2-.231-2.914-.694-2.914-2.345,0-1.388,1.311-2.113,2.853-2.113a5.3,5.3,0,0,1,2.7.74.12.12,0,0,1,.046.185l-.247.417a.127.127,0,0,1-.186.046,4.748,4.748,0,0,0-2.344-.633c-1.2,0-2.021.509-2.021,1.357,0,1.064,1.111,1.357,2.267,1.6,1.326.278,2.838.617,2.838,2.252C1063.147,200.383,1061.991,201.277,1060.14,201.277Z" transform="translate(-910.145 -189.91)" fill="#fff"/>
          </g>
        </g>
      </g>
      <line id="Line_404" data-name="Line 404" y2="33.425" transform="translate(208.131 19.363)" fill="none" stroke="#fff" stroke-width="1"/>
      <g id="Group_1765" data-name="Group 1765" transform="translate(236.131 26.05)">
        <path id="Path_10546" data-name="Path 10546" d="M1401.3.075h18.109a3.429,3.429,0,0,1,2.739,1.022,5.916,5.916,0,0,1,.975,3.746c.031,1.734.077,3.467.108,5.185.031,1.594.356,1.7,1.362.464,1.734-2.12,3.452-4.225,5.943-7.275,2.322-2.848,3.978-3.235,7.693-3.219h.217c1.362,0,1.486.248.619,1.3-3.127,3.808-11.748,14.487-12.986,15.726a3.725,3.725,0,0,1-2.987,1.347h-6.9a.306.306,0,0,1-.279-.186.229.229,0,0,1-.016-.108c-.031-1.145-.186-9.116-.248-11.949-.031-1.3-1.13-1.78-2.26-1.78q-5.433,0-10.85-.015a1.036,1.036,0,0,0-.96.371c-.077.108-.7,1.734-.727,1.888-.124.542.139.635.99.635,1.548,0,5.882,0,6.485-.015a1.221,1.221,0,0,1,.758.17.837.837,0,0,1,.248.48c.016.093.062,1.857.077,2.4.016.789-.217,1.022-1.006,1.022-2.8,0-5.6,0-8.4-.015a1.028,1.028,0,0,0-1.176.82c-.078.2-.139.387-.341.944-.371,1.022-.263,1.176.82,1.176,3.483,0,6.965-.015,10.463-.015a4.222,4.222,0,0,1,4.1,3.777c.016.17-.093.387-.278.387h-18.806c-1.548,0-3.343-.263-4.3-1.114-.665-.588-.959-1.455-.418-2.91.7-1.888,3.158-8.668,3.715-10.153a8.032,8.032,0,0,1,1.393-2.569c1.331-1.563,3.2-1.532,6.129-1.532" transform="translate(-1174.671 0)" fill="#0b788c"/>
        <g id="Group_1763" data-name="Group 1763" transform="translate(0 -0.002)">
          <path id="Path_10547" data-name="Path 10547" d="M1.687,0A7.172,7.172,0,0,1,4.736.8,16.067,16.067,0,0,1,8.265,3.08L15.71,9.194V3.916a3.259,3.259,0,0,1,1.455-2.755A5.765,5.765,0,0,1,20.787,0h1.687V18.372H20.787a8.6,8.6,0,0,1-2.956-.511,7.8,7.8,0,0,1-2.492-1.424L6.764,8.993V14.5a3.607,3.607,0,0,1-1.238,2.74,4.317,4.317,0,0,1-3,1.13H0V0Z" transform="translate(0 0)" fill="#fff"/>
          <path id="Path_10548" data-name="Path 10548" d="M293.339,1.207A5.037,5.037,0,0,1,296.745,0h13.373a4.517,4.517,0,0,1-.944,2.894A2.824,2.824,0,0,1,306.9,4.1h-8.219V7.244H307.5a3.958,3.958,0,0,1-1.022,2.74,3.247,3.247,0,0,1-2.492,1.13h-5.324v3.142h8.219a2.824,2.824,0,0,1,2.275,1.207,4.547,4.547,0,0,1,.944,2.894H296.729a5.037,5.037,0,0,1-3.405-1.207,3.633,3.633,0,0,1-1.424-2.879V4.117A3.73,3.73,0,0,1,293.339,1.207Z" transform="translate(-246.72 0)" fill="#fff"/>
          <path id="Path_10549" data-name="Path 10549" d="M557.683,0a7.458,7.458,0,0,1,2.956.573,5.6,5.6,0,0,1,2.2,1.625l1.811,2.353L566.459,2.2A5.544,5.544,0,0,1,568.7.573,8.206,8.206,0,0,1,571.829,0h2.631l-6.655,8.822,7.089,9.55h-2.833a6.309,6.309,0,0,1-2.832-.681,6.584,6.584,0,0,1-2.291-1.888l-2.291-2.956L562.233,15.8a7.371,7.371,0,0,1-2.291,1.888,5.98,5.98,0,0,1-2.74.681h-3l6.826-9.6L554.7,0Z" transform="translate(-468.422 0)" fill="#fff"/>
          <path id="Path_10550" data-name="Path 10550" d="M831.185,1.207A4.252,4.252,0,0,1,834.249,0h10.633a4.252,4.252,0,0,1,3.065,1.207A3.867,3.867,0,0,1,849.232,4.1V14.255a3.843,3.843,0,0,1-1.285,2.894,4.252,4.252,0,0,1-3.065,1.207H834.249a4.252,4.252,0,0,1-3.065-1.207,3.868,3.868,0,0,1-1.285-2.894V4.117A3.876,3.876,0,0,1,831.185,1.207Zm5.495,13.063h5.8V4.117h-5.8Z" transform="translate(-701.449 0)" fill="#fff"/>
          <path id="Path_10551" data-name="Path 10551" d="M1100.518,0a7.172,7.172,0,0,1,3.049.8A16.067,16.067,0,0,1,1107.1,3.08l7.445,6.114V3.916A3.259,3.259,0,0,1,1116,1.161,5.764,5.764,0,0,1,1119.618,0h1.687V18.372h-1.687a8.6,8.6,0,0,1-2.956-.511,7.8,7.8,0,0,1-2.492-1.424l-8.59-7.445V14.5a3.606,3.606,0,0,1-1.238,2.74,4.316,4.316,0,0,1-3,1.13H1098.8V0Z" transform="translate(-928.729 0)" fill="#fff"/>
        </g>
      </g>
    </g>
  </g>
</svg>
